# xmcd
#
# Track frame offsets: 
#        182
#        9155
#        23912
#        39052
#        56682
#        71452
#        80500
#        95305
#        111345
#        124220
#        137400
#        151295
#        171015
#        184995
#        202162
#        220457
#
# Disc length: 3187 seconds
#
# Revision: 2
# Processed by: cddbd v1.5.2PL0 Copyright (c) Steve Scherf et al.
# Submitted via: ExactAudioCopyFreeDBPlugin 1.0
#
DISCID=d60c7110
DTITLE=Various Artist - The Fleetwood Mac Family Album
DYEAR=1996
DGENRE=Blues
TTITLE0=Cheynes - Respectable
TTITLE1=Peter B's Looners - If You Wanna Be Happy
TTITLE2=John Mayall's Bluesbreakers - Double Trouble
TTITLE3=Fleetwood Mac - Fleetwood Mac
TTITLE4=Chicken Shack - I'd Rather Go Blind
TTITLE5=Jeremy Spencer - The Shape I'm In
TTITLE6=Christine Perfect - When You Say
TTITLE7=Tramp - Put A Record On
TTITLE8=Danny Kirwan - Ram Jam City
TTITLE9=Bob Welch - Sentimental Lady
TTITLE10=Dave Mason - We Just Disagree
TTITLE11=John Stewart - Gold
TTITLE12=Billy Burnette - Don't Say No
TTITLE13=Mick Fleetwood - Rattlesnake Shake
TTITLE14=Stevie Nicks - Stop Draggin' My Heart Around
TTITLE15=John McVie - Now I Know
EXTD=
EXTT0=The Cheynes
EXTT1=Peter B's Looners
EXTT2=John Mayall and the Bluesbreakers
EXTT3=Fleetwood Mac
EXTT4=Chicken Shack
EXTT5=Jeremy Spencer
EXTT6=Christine Perfect
EXTT7=Tramp
EXTT8=Danny Kirwan
EXTT9=Bob Welch
EXTT10=Dave Mason
EXTT11=John Stewart
EXTT12=Billy Burnette
EXTT13=Mick Fleetwood
EXTT14=Stevie Nicks
EXTT15=John McVie
PLAYORDER=
